<?xml version="1.0" standalone="no"?>
<!DOCTYPE svg PUBLIC "-//W3C//DTD SVG 20010904//EN"
 "http://www.w3.org/TR/2001/REC-SVG-20010904/DTD/svg10.dtd">
<svg version="1.0" xmlns="http://www.w3.org/2000/svg"
 width="400.000000pt" height="500.000000pt" viewBox="0 0 400.000000 500.000000"
 preserveAspectRatio="xMidYMid meet">

<g transform="translate(0.000000,500.000000) scale(0.100000,-0.100000)"
fill="#000000" stroke="none">
<path d="M1878 4561 c4 -11 0 -13 -16 -9 -15 4 -22 2 -22 -8 0 -9 -12 -14 -35
-14 -25 0 -33 -4 -29 -14 3 -8 -3 -17 -14 -20 -11 -4 -22 -14 -26 -24 -3 -9
-15 -29 -27 -43 -21 -26 -21 -28 -4 -94 14 -56 14 -69 3 -76 -10 -7 -9 -9 5
-9 13 0 17 -9 19 -37 5 -89 4 -88 27 -148 4 -11 6 -48 3 -81 -3 -39 0 -64 7
-68 7 -5 11 9 11 45 0 58 10 57 30 -3 6 -21 16 -40 21 -43 5 -4 5 5 -1 20 -15
40 -12 45 21 33 31 -11 119 -7 152 7 24 10 21 -6 -8 -49 -34 -51 -31 -57 5
-11 17 21 30 46 30 56 0 10 5 21 10 24 6 4 10 -14 10 -47 1 -45 3 -50 13 -37
11 14 16 15 37 4 24 -12 196 -75 206 -75 3 0 3 4 0 9 -3 5 -52 25 -108 46 -57
20 -109 43 -117 51 -18 16 -24 71 -12 104 5 14 13 34 17 45 4 11 6 24 5 30 -5
21 12 125 20 125 12 0 11 -47 -1 -89 -8 -27 -7 -32 3 -22 19 19 14 321 -6 321
-4 0 -22 15 -40 34 -18 19 -46 36 -64 40 -18 3 -45 13 -60 23 -34 22 -73 25
-65 4z m166 -170 c40 -142 43 -266 9 -339 -18 -38 -78 -72 -128 -72 -36 0 -96
20 -119 40 -42 34 -60 120 -57 265 3 120 2 120 159 121 113 1 132 -1 136 -15z"/>
<path d="M1800 4281 c0 -11 59 -26 67 -17 3 3 -6 10 -21 16 -34 12 -46 13 -46
1z"/>
<path d="M1970 4270 c-26 -16 -5 -19 35 -5 39 14 39 14 10 14 -16 1 -37 -3
-45 -9z"/>
<path d="M1813 4239 c14 -8 22 -8 30 0 8 8 3 11 -18 11 -26 -1 -28 -2 -12 -11z"/>
<path d="M1988 4238 c9 -9 15 -9 24 0 9 9 7 12 -12 12 -19 0 -21 -3 -12 -12z"/>
<path d="M1855 4114 c-10 -8 -14 -14 -8 -14 7 0 15 5 19 11 3 6 16 8 28 5 11
-3 27 -1 35 3 9 6 3 9 -20 9 -19 0 -43 -6 -54 -14z"/>
<path d="M1955 4110 c3 -5 11 -10 16 -10 6 0 7 5 4 10 -3 6 -11 10 -16 10 -6
0 -7 -4 -4 -10z"/>
<path d="M1893 4063 c15 -2 37 -2 50 0 12 2 0 4 -28 4 -27 0 -38 -2 -22 -4z"/>
<path d="M1696 4215 c9 -40 22 -75 28 -75 5 0 -22 91 -30 99 -3 3 -2 -8 2 -24z"/>
<path d="M1720 3923 c-53 -20 -122 -54 -118 -58 6 -6 105 32 132 51 21 14 14
17 -14 7z"/>
<path d="M1525 3840 c-78 -11 -91 -18 -133 -65 -51 -59 -77 -137 -67 -211 3
-29 10 -54 15 -54 5 0 5 14 0 31 -18 62 18 173 77 236 28 30 84 53 130 53 12
0 25 5 28 10 3 6 5 9 3 9 -2 -1 -26 -5 -53 -9z"/>
<path d="M1660 3830 c30 -5 75 -8 100 -8 l45 1 -45 8 c-25 4 -70 7 -100 7
l-55 -1 55 -7z"/>
<path d="M2070 3830 l-35 -7 40 -1 c22 0 67 4 100 8 l60 7 -65 0 c-36 0 -81
-3 -100 -7z"/>
<path d="M2381 3807 c75 -50 136 -195 111 -266 -6 -17 -7 -31 -2 -31 14 0 23
67 17 122 -4 27 -18 70 -32 93 -27 47 -90 105 -114 105 -8 0 1 -10 20 -23z"/>
<path d="M1903 3803 c9 -2 23 -2 30 0 6 3 -1 5 -18 5 -16 0 -22 -2 -12 -5z"/>
<path d="M1487 3566 c5 -15 3 -17 -8 -11 -8 5 -6 -1 5 -13 27 -31 35 -291 12
-413 -10 -54 -16 -139 -16 -230 0 -106 -5 -165 -19 -224 -30 -125 -34 -162
-26 -242 6 -67 10 -78 46 -119 33 -38 39 -52 39 -90 0 -30 -4 -43 -11 -38 -6
3 -8 15 -6 26 4 14 2 18 -10 14 -8 -3 -17 -6 -20 -6 -4 0 2 -9 12 -20 15 -17
16 -24 6 -46 -13 -29 -6 -47 9 -24 5 8 11 19 13 23 1 5 16 3 32 -3 73 -28 249
-20 339 16 17 7 18 3 11 -54 -4 -34 -4 -62 -1 -62 3 0 10 27 17 61 6 33 15 57
19 52 4 -4 18 -38 30 -75 13 -37 25 -66 27 -64 2 2 -3 31 -11 64 -22 82 -22
83 17 69 50 -19 272 -15 325 6 42 16 44 16 49 -1 3 -9 19 -28 36 -42 l32 -25
-28 34 c-17 20 -27 42 -24 53 3 11 0 18 -9 18 -10 0 -14 12 -14 41 0 33 8 49
40 88 35 41 40 54 40 97 0 59 -17 129 -59 246 -34 96 -38 151 -20 252 9 52 8
77 -10 167 -15 80 -18 115 -11 140 6 19 10 70 11 114 0 70 4 104 23 214 3 13
1 20 -3 15 -16 -18 -41 -95 -41 -125 0 -19 -9 -39 -25 -55 -30 -30 -50 -28
-200 23 -113 38 -116 29 -5 -17 64 -26 69 -30 35 -25 -22 3 -51 7 -65 10 -18
4 -15 1 10 -11 53 -25 178 -30 218 -10 l32 17 0 -40 c0 -21 -7 -75 -15 -119
-21 -108 -21 -170 -1 -271 9 -46 16 -116 16 -156 0 -84 6 -80 -121 -91 l-73
-7 37 43 c23 27 40 59 44 82 3 23 14 45 27 53 23 17 14 20 -13 5 -11 -5 -21
-26 -24 -47 -7 -44 -44 -98 -84 -125 -24 -16 -50 -18 -200 -18 l-173 0 -39 35
c-38 34 -53 62 -65 116 -3 15 -17 30 -33 38 -28 11 -28 11 -6 -6 12 -10 26
-37 33 -61 6 -23 25 -58 41 -77 l31 -35 -40 0 c-23 0 -64 5 -93 11 l-52 11 6
132 c4 72 11 151 17 176 9 35 7 78 -6 192 -10 81 -15 150 -12 154 4 3 17 -1
30 -10 30 -22 109 -20 178 4 48 17 30 19 -25 3 -39 -11 -9 6 65 37 88 36 75
34 -77 -10 -106 -32 -112 -33 -137 -17 -17 11 -27 29 -31 54 -9 55 -27 112
-42 131 -12 16 -13 15 -6 -2z m50 -496 c-3 -36 -11 -99 -18 -140 l-14 -75 -6
70 c-8 85 20 271 34 233 5 -13 6 -52 4 -88z m793 37 c0 -13 7 -46 15 -73 10
-33 12 -59 6 -79 -9 -33 -13 -28 -30 47 -14 59 -14 128 -1 128 6 0 10 -10 10
-23z m-829 -423 c-6 -32 -11 -114 -12 -183 0 -69 -4 -135 -8 -146 -8 -19 -8
-19 -18 0 -21 40 -15 175 12 280 14 55 26 109 26 120 1 16 2 16 6 3 2 -9 -1
-43 -6 -74z m129 3 c85 -18 515 -14 620 6 57 11 88 13 95 6 12 -12 20 -384 8
-408 -4 -9 -8 -36 -8 -61 l0 -45 -50 -11 c-65 -16 -217 -17 -288 -3 l-56 12
-11 53 c-15 71 -11 85 25 97 17 6 39 17 50 25 20 15 15 14 -32 -5 -14 -5 -13
-1 5 25 22 30 52 104 52 126 0 6 -18 -22 -39 -61 -21 -40 -44 -80 -51 -88 -32
-39 -66 -5 -115 112 -15 36 -24 49 -25 36 0 -31 29 -104 53 -130 24 -27 14
-29 -39 -8 -36 14 -37 14 -19 0 11 -9 39 -21 63 -28 l43 -11 -3 -70 -3 -70
-45 -14 c-50 -15 -259 -22 -304 -9 -27 8 -28 10 -22 51 5 34 2 51 -14 79 -19
32 -20 47 -17 208 2 96 8 182 12 192 6 14 14 17 34 12 14 -4 50 -12 81 -18z
m775 -150 c8 -29 16 -79 17 -110 2 -47 -2 -61 -20 -79 l-22 -22 0 132 c0 73 2
132 5 132 2 0 11 -24 20 -53z"/>
<path d="M2083 2633 c9 -2 25 -2 35 0 9 3 1 5 -18 5 -19 0 -27 -2 -17 -5z"/>
<path d="M1843 2623 c37 -2 97 -2 135 0 37 2 6 3 -68 3 -74 0 -105 -1 -67 -3z"/>
<path d="M1578 2178 c21 -8 206 -8 246 1 17 3 -36 6 -117 6 -80 0 -138 -3
-129 -7z"/>
<path d="M2036 2178 c51 -9 169 -9 219 1 25 4 -17 7 -109 6 -87 0 -133 -3
-110 -7z"/>
<path d="M1322 3480 c0 -14 2 -19 5 -12 2 6 2 18 0 25 -3 6 -5 1 -5 -13z"/>
<path d="M2507 3285 c-4 -104 -7 -198 -7 -209 -1 -10 8 -37 19 -60 43 -92 47
-162 25 -411 -3 -39 -2 -85 4 -105 9 -31 10 -29 5 21 -3 31 0 88 7 128 25 150
11 302 -37 394 -12 24 -12 45 -2 140 8 78 9 140 2 202 l-9 90 -7 -190z"/>
<path d="M1315 3255 c2 -177 0 -204 -16 -236 -40 -81 -48 -241 -17 -369 6 -25
14 -97 18 -160 l7 -115 1 92 c1 51 -5 135 -14 185 -22 129 -16 284 16 356 13
29 22 65 22 80 -1 15 -5 104 -11 197 l-9 170 3 -200z"/>
<path d="M1641 3156 c-1 -58 14 -113 40 -147 18 -22 17 -20 -2 24 -11 26 -24
76 -28 110 l-8 62 -2 -49z"/>
<path d="M2218 3127 c-2 -30 -14 -73 -26 -96 -13 -23 -17 -39 -11 -35 28 17
74 184 51 184 -5 0 -12 -24 -14 -53z"/>
<path d="M1380 3020 c0 -5 5 -10 10 -10 6 0 10 5 10 10 0 6 -4 10 -10 10 -5 0
-10 -4 -10 -10z"/>
<path d="M2420 3020 c-13 -8 -12 -10 3 -10 9 0 17 5 17 10 0 12 -1 12 -20 0z"/>
<path d="M1710 2899 c0 -30 5 -61 10 -69 7 -10 8 6 4 50 -8 82 -14 90 -14 19z"/>
<path d="M2177 2895 c-5 -27 -10 -59 -12 -70 -3 -11 2 -5 11 14 8 18 14 50 12
70 -3 35 -3 34 -11 -14z"/>
<path d="M2561 2450 c0 -8 4 -22 9 -30 12 -18 12 -2 0 25 -6 13 -9 15 -9 5z"/>
<path d="M2581 2380 c0 -8 4 -24 9 -35 5 -13 9 -14 9 -5 0 8 -4 24 -9 35 -5
13 -9 14 -9 5z"/>
<path d="M1276 2318 c-3 -13 -5 -41 -5 -63 1 -33 3 -29 9 20 8 63 7 81 -4 43z"/>
<path d="M2600 2263 c-3 -34 -1 -58 3 -54 5 4 7 32 5 62 l-3 54 -5 -62z"/>
<path d="M2380 2228 c0 -8 3 -18 8 -22 4 -4 8 -12 8 -17 1 -5 2 -13 3 -19 0
-5 8 -7 16 -4 12 5 12 10 3 27 -7 12 -12 26 -13 31 0 15 -25 19 -25 4z"/>
<path d="M1461 2181 c-8 -14 -7 -20 4 -25 11 -4 15 2 15 19 0 30 -6 32 -19 6z"/>
<path d="M2555 2180 c-3 -5 -2 -10 4 -10 5 0 13 5 16 10 3 6 2 10 -4 10 -5 0
-13 -4 -16 -10z"/>
<path d="M1323 2154 c19 -19 34 -25 57 -22 30 3 30 4 15 23 -14 17 -16 17 -11
3 8 -26 -36 -24 -52 2 -7 11 -17 20 -23 20 -7 0 0 -12 14 -26z"/>
<path d="M2480 2165 c-7 -9 -11 -18 -8 -20 3 -3 11 1 18 10 7 9 11 18 8 20 -3
3 -11 -1 -18 -10z"/>
<path d="M2525 2150 c-16 -7 -17 -9 -3 -9 9 -1 20 4 23 9 7 11 7 11 -20 0z"/>
<path d="M1410 2116 c0 -2 8 -10 18 -17 15 -13 16 -12 3 4 -13 16 -21 21 -21
13z"/>
<path d="M2351 2034 c-7 -51 -11 -98 -9 -105 6 -18 31 153 26 178 -2 10 -9
-23 -17 -73z"/>
<path d="M1501 2095 c-2 -35 20 -188 29 -204 10 -18 5 26 -15 149 -7 41 -13
66 -14 55z"/>
<path d="M1886 1919 c-2 -8 -7 -59 -9 -114 -3 -66 -12 -121 -27 -162 -20 -57
-20 -69 -10 -155 24 -201 24 -194 -14 -340 -27 -104 -36 -156 -35 -210 l2 -73
7 85 c4 47 22 136 40 199 35 123 34 96 14 369 -5 65 -3 92 11 128 10 27 20 93
25 162 7 112 6 142 -4 111z"/>
<path d="M1985 1865 c13 -154 15 -174 31 -211 13 -30 15 -57 10 -119 -21 -265
-21 -262 14 -380 23 -78 35 -142 40 -220 l7 -110 1 96 c2 74 -4 116 -23 190
-49 181 -49 187 -31 342 16 139 16 143 -4 194 -12 31 -24 99 -30 164 -5 62
-12 114 -15 118 -3 3 -3 -26 0 -64z"/>
<path d="M2332 1890 c0 -14 2 -19 5 -12 2 6 2 18 0 25 -3 6 -5 1 -5 -13z"/>
<path d="M2316 1834 c-4 -14 -5 -28 -3 -31 3 -2 8 8 11 23 4 14 5 28 3 31 -3
2 -8 -8 -11 -23z"/>
<path d="M2292 1753 c-6 -20 -7 -32 -2 -27 10 10 25 64 18 64 -3 0 -10 -16
-16 -37z"/>
<path d="M1585 1657 c2 -55 14 -91 47 -145 30 -49 32 -33 3 31 -14 30 -28 78
-32 107 -8 68 -21 73 -18 7z"/>
<path d="M2264 1649 c-7 -36 -22 -88 -35 -115 -13 -27 -25 -53 -28 -59 -2 -5
3 -4 12 3 9 8 27 36 41 63 l24 50 9 -58 c4 -32 8 -119 7 -193 0 -113 -5 -154
-28 -250 -20 -81 -30 -154 -35 -247 -6 -128 -5 -132 15 -142 12 -5 48 -31 80
-57 87 -70 92 -72 59 -33 -33 40 -113 99 -134 99 -23 0 -8 234 23 355 43 170
50 263 30 401 -9 65 -20 148 -23 184 l-6 65 -11 -66z"/>
<path d="M1564 1525 c-18 -138 -10 -300 20 -425 15 -63 34 -160 41 -215 l14
-100 -3 85 c-2 47 -15 135 -29 195 -38 161 -47 273 -36 399 12 122 6 167 -7
61z"/>
<path d="M1782 805 c0 -16 2 -22 5 -12 2 9 2 23 0 30 -3 6 -5 -1 -5 -18z"/>
<path d="M2081 774 c0 -11 3 -14 6 -6 3 7 2 16 -1 19 -3 4 -6 -2 -5 -13z"/>
<path d="M1788 735 c-2 -11 2 -30 10 -43 12 -18 12 -25 1 -40 -11 -14 -11 -15
1 -4 22 19 29 15 36 -23 4 -25 1 -43 -11 -63 l-18 -27 21 19 c28 24 29 75 3
108 -11 13 -24 40 -29 59 -7 27 -10 30 -14 14z"/>
<path d="M2081 730 c-1 -14 -12 -43 -26 -65 -25 -42 -31 -80 -16 -104 7 -10 8
-2 5 25 -6 51 7 73 33 53 16 -13 17 -13 4 3 -11 15 -11 21 1 40 9 15 12 32 7
48 l-7 25 -1 -25z"/>
<path d="M1598 706 c-49 -29 -98 -73 -98 -88 0 -6 10 -2 23 9 12 12 49 39 81
62 62 43 58 55 -6 17z"/>
<path d="M1406 565 c-3 -8 -1 -15 3 -15 5 0 11 7 15 15 3 8 1 15 -3 15 -5 0
-11 -7 -15 -15z"/>
<path d="M2443 570 c9 -6 17 -18 17 -25 0 -8 5 -15 11 -15 6 0 9 9 6 20 -4 15
0 20 13 20 10 0 21 -7 23 -15 4 -11 4 -10 3 2 -1 14 -11 19 -46 21 -35 2 -41
0 -27 -8z"/>
<path d="M1675 554 c-40 -14 -40 -14 -5 -9 19 3 39 10 44 15 12 12 12 12 -39
-6z"/>
<path d="M1457 548 c-8 -23 8 -27 83 -18 36 4 56 8 45 9 -12 0 -27 7 -34 14
-11 10 -13 10 -7 0 5 -9 0 -13 -13 -13 -10 0 -22 6 -24 13 -4 10 -6 10 -6 0
-1 -16 -28 -17 -33 -1 -3 8 -7 6 -11 -4z"/>
<path d="M2159 549 c-10 -6 -4 -9 19 -9 17 0 32 2 32 4 0 9 -39 13 -51 5z"/>
<path d="M2411 548 c-1 -21 -27 -24 -34 -5 -4 10 -6 10 -6 0 -1 -7 -10 -13
-20 -13 -11 0 -22 6 -24 13 -4 7 -6 6 -6 -4 -1 -13 10 -18 45 -21 47 -3 62 7
51 34 -4 8 -6 6 -6 -4z"/>
<path d="M1733 543 c9 -2 25 -2 35 0 9 3 1 5 -18 5 -19 0 -27 -2 -17 -5z"/>
</g>
</svg>
