<?xml version="1.0" standalone="no"?>
<!DOCTYPE svg PUBLIC "-//W3C//DTD SVG 20010904//EN"
 "http://www.w3.org/TR/2001/REC-SVG-20010904/DTD/svg10.dtd">
<svg version="1.0" xmlns="http://www.w3.org/2000/svg"
 width="400.000000pt" height="500.000000pt" viewBox="0 0 400.000000 500.000000"
 preserveAspectRatio="xMidYMid meet">

<g transform="translate(0.000000,500.000000) scale(0.100000,-0.100000)"
fill="#000000" stroke="none">
<path d="M1900 4729 c0 -5 -9 -9 -20 -9 -11 0 -20 -4 -20 -10 0 -5 -11 -10
-25 -10 -14 0 -25 -5 -25 -11 0 -6 -14 -30 -31 -54 -30 -41 -31 -45 -23 -111
4 -38 6 -71 5 -73 -2 -2 3 -8 11 -13 10 -7 10 -11 1 -15 -7 -2 -13 -11 -13
-19 0 -9 4 -13 9 -10 11 7 21 -17 21 -48 0 -13 3 -26 7 -30 17 -17 33 -87 33
-151 0 -38 5 -77 11 -85 7 -11 9 6 7 61 -3 75 -3 76 18 67 14 -7 27 -28 37
-62 l16 -51 -6 48 c-5 46 -5 47 21 47 15 0 39 6 54 14 l27 14 -2 -76 c-2 -65
-1 -73 8 -49 l11 29 27 -25 c14 -14 44 -30 66 -37 22 -7 46 -18 54 -24 11 -9
13 -8 9 4 -2 8 -27 24 -55 35 -85 34 -103 54 -103 117 0 30 8 79 19 109 10 31
22 75 27 100 l8 44 7 -35 c3 -19 5 8 4 60 -2 52 -4 112 -4 133 -1 23 -6 37
-14 37 -7 0 -23 13 -34 29 -13 16 -35 31 -54 35 -18 3 -39 12 -47 18 -18 15
-42 19 -42 7z m130 -143 c5 -18 31 -164 31 -171 -1 -28 -24 -123 -37 -146 -17
-34 -65 -69 -94 -69 -33 0 -86 36 -98 68 -16 38 -27 85 -24 99 1 6 -2 14 -8
18 -15 10 -13 157 4 180 12 18 26 20 120 21 58 1 106 1 106 0z"/>
<path d="M1853 4464 c16 -9 32 -13 35 -9 9 9 -19 25 -43 24 -16 0 -15 -2 8
-15z"/>
<path d="M1978 4473 c-22 -5 -22 -10 -3 -29 11 -11 19 -12 32 -5 17 10 17 10
-2 11 -18 1 -17 2 5 15 22 12 22 14 5 13 -11 0 -28 -2 -37 -5z"/>
<path d="M1840 4440 c19 -13 30 -13 30 0 0 6 -10 10 -22 10 -19 0 -20 -2 -8
-10z"/>
<path d="M1830 4345 c7 -9 15 -13 17 -11 7 7 -7 26 -19 26 -6 0 -6 -6 2 -15z"/>
<path d="M2010 4345 c-11 -13 -10 -14 4 -9 9 3 16 10 16 15 0 13 -6 11 -20 -6z"/>
<path d="M1900 4335 c0 -7 30 -13 34 -7 3 4 -4 9 -15 9 -10 1 -19 0 -19 -2z"/>
<path d="M1908 4283 c12 -2 30 -2 40 0 9 3 -1 5 -23 4 -22 0 -30 -2 -17 -4z"/>
<path d="M1784 4097 c-10 -7 -39 -19 -64 -27 -25 -7 -40 -15 -33 -17 16 -6 84
14 107 32 25 19 16 29 -10 12z"/>
<path d="M1715 4010 c28 -5 66 -8 85 -8 l35 0 -30 8 c-16 4 -55 8 -85 7 l-55
0 50 -7z"/>
<path d="M2055 4010 l-30 -8 30 0 c17 0 53 3 80 8 l50 7 -50 0 c-27 1 -63 -3
-80 -7z"/>
<path d="M1598 4003 c6 -2 18 -2 25 0 6 3 1 5 -13 5 -14 0 -19 -2 -12 -5z"/>
<path d="M1505 3951 c-36 -58 -43 -105 -50 -331 -4 -113 -10 -272 -16 -355
-22 -360 -22 -379 -4 -540 10 -94 15 -182 11 -219 -21 -200 -22 -191 18 -231
20 -19 36 -31 36 -25 0 6 -14 24 -31 40 l-32 28 9 74 c4 40 6 132 4 203 -6
230 -5 516 2 665 20 375 22 407 29 355 l6 -50 1 46 c1 25 -3 71 -9 102 -14 69
-1 156 35 227 30 60 26 65 -9 11z"/>
<path d="M1918 3983 c6 -2 18 -2 25 0 6 3 1 5 -13 5 -14 0 -19 -2 -12 -5z"/>
<path d="M2344 3928 c27 -55 30 -70 30 -152 -1 -50 -4 -118 -7 -151 -5 -51 -5
-54 3 -20 24 98 30 169 20 222 -11 62 -40 132 -62 150 -8 7 -1 -15 16 -49z"/>
<path d="M1923 3770 c0 -36 2 -50 4 -32 2 17 2 47 0 65 -2 17 -4 3 -4 -33z"/>
<path d="M1579 3731 c11 -19 0 -117 -18 -163 -15 -40 -5 -34 18 9 l19 38 -4
-95 c-3 -52 -9 -149 -14 -215 -18 -214 -20 -256 -25 -531 l-5 -272 61 -67 c46
-51 59 -72 55 -89 -3 -11 -6 -30 -6 -41 -1 -18 -1 -19 -11 -2 -5 9 -7 22 -4
27 14 22 -14 8 -29 -15 -20 -31 -20 -45 0 -45 10 0 14 6 11 15 -4 8 -2 17 3
20 16 10 11 -39 -6 -63 -19 -27 -51 -29 -59 -3 -3 11 -13 25 -22 33 -14 10
-13 7 3 -21 10 -18 29 -38 42 -44 15 -7 22 -19 22 -40 0 -73 34 -248 72 -365
50 -158 63 -169 126 -111 45 41 35 47 -14 8 -36 -28 -39 -29 -51 -12 -35 47
-95 285 -111 436 -7 69 -6 77 7 71 36 -15 186 -16 229 -1 l42 15 0 -154 c0
-96 -4 -154 -10 -154 -5 0 -10 8 -11 18 0 9 -6 60 -13 112 -11 75 -14 85 -15
47 -1 -27 8 -108 20 -180 27 -170 29 -302 5 -387 -18 -63 -18 -70 0 -213 15
-126 16 -171 8 -315 -6 -92 -8 -203 -4 -247 6 -75 7 -72 8 51 1 72 7 180 13
240 10 92 8 132 -7 257 -17 140 -17 152 -1 230 12 57 17 134 18 252 1 150 13
374 18 320 0 -11 8 -81 17 -155 9 -86 13 -166 9 -221 -5 -65 -3 -106 10 -164
14 -63 16 -97 9 -174 -8 -99 -9 -272 -4 -541 2 -85 1 -171 -3 -191 -9 -50 -25
-89 -36 -89 -9 0 -23 36 -34 85 -4 17 -5 17 -6 -3 -1 -14 -5 -21 -12 -16 -6 3
-3 -5 6 -20 13 -20 15 -29 6 -40 -9 -11 -8 -14 6 -12 15 1 18 -7 17 -47 0 -26
3 -42 7 -36 4 6 12 8 19 4 9 -5 10 -2 5 14 -10 31 3 81 20 75 10 -4 12 0 8 15
-3 12 -1 27 4 34 5 7 7 107 5 237 -2 124 -5 259 -6 300 0 41 5 122 13 179 13
90 13 113 0 175 -18 92 -17 295 4 411 24 140 31 215 18 215 -6 0 -11 -18 -11
-40 0 -54 -21 -192 -28 -185 -7 6 -33 308 -27 313 1 2 22 -2 45 -8 24 -6 84
-10 134 -9 51 2 98 -1 105 -6 44 -26 -68 -515 -118 -515 -3 0 -19 11 -35 25
-16 14 -34 25 -39 25 -5 0 12 -17 38 -37 l47 -38 -6 -95 c-6 -88 -11 -123 -30
-190 -4 -17 0 -13 13 12 26 45 45 166 38 234 -3 28 -1 57 4 65 5 9 10 -41 11
-131 4 -217 -1 -290 -33 -575 -30 -269 -32 -291 -25 -284 3 2 20 117 38 254
31 235 33 266 30 512 l-2 262 30 88 c28 86 70 296 70 355 0 20 -9 37 -30 55
-16 13 -30 33 -30 44 0 10 -4 19 -10 19 -5 0 -10 18 -10 40 0 36 7 47 57 98
l57 57 4 85 c5 90 -12 485 -28 685 -6 66 -11 175 -13 243 -2 113 -1 120 12 92
21 -43 32 -37 16 8 -19 55 -33 142 -23 148 4 3 8 10 8 16 0 27 -42 -31 -62
-85 -12 -33 -33 -73 -46 -89 l-24 -29 25 12 c14 7 32 26 40 43 7 17 19 42 25
56 8 19 10 -21 4 -165 -7 -223 -9 -487 -3 -600 4 -78 4 -80 -21 -92 -14 -7
-91 -18 -171 -25 -154 -13 -335 -2 -390 23 l-27 12 0 181 c0 100 -3 287 -6
416 -4 210 -3 232 9 204 15 -31 52 -64 71 -64 5 0 -1 10 -13 21 -13 12 -30 38
-38 58 -31 77 -55 119 -69 125 -11 4 -12 2 -5 -13z m37 -676 c-3 -82 -2 -193
3 -245 4 -52 9 -80 9 -62 1 17 4 32 7 32 2 0 28 -6 57 -14 126 -33 414 -28
517 9 l41 14 1 -32 c1 -18 5 -45 9 -62 9 -33 5 101 -10 315 -5 74 -6 160 -2
190 l8 55 12 -66 c7 -36 12 -146 12 -245 1 -98 4 -197 9 -219 8 -46 5 -65 -12
-65 -9 0 -11 -28 -9 -100 l4 -100 -46 -51 c-41 -46 -46 -56 -46 -99 0 -27 5
-52 10 -55 6 -3 10 -11 10 -17 0 -7 -35 -9 -107 -6 -59 3 -99 1 -88 -3 11 -4
63 -8 115 -9 78 -2 88 -4 55 -10 -44 -9 -143 -3 -191 11 -37 11 -44 29 -44
110 0 42 4 58 15 63 19 7 60 96 70 151 9 54 2 44 -35 -50 -17 -44 -40 -89 -50
-100 -14 -15 -19 -39 -22 -95 l-3 -75 -40 -13 c-40 -14 -227 -14 -240 0 -4 3
5 28 19 54 35 66 33 100 -6 149 l-33 39 0 122 c0 67 -3 117 -7 111 -4 -7 -8
-56 -8 -109 0 -61 -4 -98 -10 -98 -6 0 -13 7 -16 15 -8 21 13 765 23 795 14
46 24 -75 19 -235z"/>
<path d="M1872 2703 c37 -2 100 -2 140 0 40 1 10 3 -67 3 -77 0 -110 -1 -73
-3z"/>
<path d="M1845 2543 c2 -28 13 -70 24 -92 36 -69 41 -55 11 28 -15 43 -31 87
-34 97 -3 11 -4 -4 -1 -33z"/>
<path d="M1868 2235 c-3 -3 -45 -9 -94 -15 l-89 -9 86 3 c48 2 95 9 105 15 11
5 14 11 8 11 -6 0 -13 -2 -16 -5z"/>
<path d="M2396 3365 c5 -143 9 -372 9 -510 0 -175 2 -229 7 -180 5 39 9 122
10 185 3 135 -21 752 -29 760 -3 3 -1 -112 3 -255z"/>
<path d="M1524 3360 c0 -58 1 -81 3 -52 2 28 2 76 0 105 -2 28 -3 5 -3 -53z"/>
<path d="M2324 3355 c0 -60 1 -84 3 -52 2 32 2 81 0 110 -2 29 -3 3 -3 -58z"/>
<path d="M1880 3431 c-9 -9 -38 -35 -65 -59 -28 -24 -41 -39 -29 -33 27 13
121 98 114 103 -3 3 -12 -2 -20 -11z"/>
<path d="M1961 3430 c17 -27 108 -100 124 -100 6 1 -3 11 -20 23 -16 12 -50
40 -75 62 -32 29 -40 33 -29 15z"/>
<path d="M1490 3129 c0 -5 5 -7 10 -4 6 3 10 8 10 11 0 2 -4 4 -10 4 -5 0 -10
-5 -10 -11z"/>
<path d="M2335 3130 c-3 -5 -2 -10 4 -10 5 0 13 5 16 10 3 6 2 10 -4 10 -5 0
-13 -4 -16 -10z"/>
<path d="M1934 2925 c0 -82 2 -115 3 -72 2 43 2 110 0 150 -1 40 -3 5 -3 -78z"/>
<path d="M2393 2525 c0 -44 2 -61 4 -37 2 23 2 59 0 80 -2 20 -4 1 -4 -43z"/>
<path d="M2208 2294 c2 -13 9 -21 15 -17 6 4 8 0 4 -10 -7 -18 7 -32 23 -22
12 8 -13 60 -33 68 -10 4 -13 -1 -9 -19z"/>
<path d="M2380 2260 c-8 -5 -12 -11 -9 -14 2 -3 11 -1 19 4 8 5 12 11 9 14 -2
3 -11 1 -19 -4z"/>
<path d="M2312 2248 c-16 -16 -15 -28 1 -28 7 0 13 9 13 20 0 11 -1 20 -1 20
-1 0 -6 -5 -13 -12z"/>
<path d="M1840 1695 c0 -5 5 -17 10 -25 5 -8 10 -10 10 -5 0 6 -5 17 -10 25
-5 8 -10 11 -10 5z"/>
<path d="M2031 1693 c-1 -6 -4 -20 -7 -30 -5 -17 -5 -17 6 0 6 10 9 23 6 30
-3 9 -5 9 -5 0z"/>
<path d="M1744 1540 c2 -81 8 -127 21 -157 22 -55 37 -56 18 -2 -7 23 -20 94
-28 158 l-14 116 3 -115z"/>
<path d="M1856 1556 c-4 -32 -14 -79 -21 -104 -8 -25 -10 -41 -5 -36 15 15 41
132 38 167 -3 25 -5 19 -12 -27z"/>
<path d="M1712 1580 c0 -14 2 -19 5 -12 2 6 2 18 0 25 -3 6 -5 1 -5 -13z"/>
<path d="M2014 1554 c7 -52 36 -148 42 -142 2 2 -3 28 -11 58 -8 30 -15 69
-15 87 0 17 -5 35 -11 39 -9 5 -10 -7 -5 -42z"/>
<path d="M1709 1480 c-2 -41 -3 -113 -1 -160 4 -134 68 -694 71 -620 1 32 -5
93 -40 400 -6 52 -14 176 -18 275 -6 130 -9 159 -12 105z"/>
<path d="M1780 627 c0 -25 -6 -36 -29 -50 -16 -9 -53 -35 -82 -57 -29 -22 -64
-40 -76 -40 -18 0 -23 -6 -23 -25 0 -14 4 -25 10 -25 5 0 7 7 4 15 -4 10 3 18
21 25 14 5 62 36 106 67 71 52 79 61 79 90 0 18 -2 33 -5 33 -3 0 -5 -15 -5
-33z"/>
<path d="M2092 620 c0 -14 2 -19 5 -12 2 6 2 18 0 25 -3 6 -5 1 -5 -13z"/>
<path d="M2165 547 c33 -30 62 -53 64 -51 8 7 -63 75 -94 91 -21 10 -12 -1 30
-40z"/>
<path d="M2250 473 c8 -3 21 -12 28 -21 10 -14 12 -13 12 6 0 18 -6 22 -27 21
-16 0 -21 -3 -13 -6z"/>
<path d="M2040 456 c0 -2 9 -6 20 -9 11 -3 18 -1 14 4 -5 9 -34 13 -34 5z"/>
<path d="M2166 445 c-3 -8 -1 -15 4 -15 6 0 10 7 10 15 0 8 -2 15 -4 15 -2 0
-6 -7 -10 -15z"/>
<path d="M2236 445 c-3 -8 -1 -15 4 -15 6 0 10 7 10 15 0 8 -2 15 -4 15 -2 0
-6 -7 -10 -15z"/>
<path d="M1680 435 c0 -8 4 -15 10 -15 5 0 7 7 4 15 -4 8 -8 15 -10 15 -2 0
-4 -7 -4 -15z"/>
<path d="M2205 440 c-3 -5 -1 -10 4 -10 6 0 11 5 11 10 0 6 -2 10 -4 10 -3 0
-8 -4 -11 -10z"/>
<path d="M1647 429 c7 -7 15 -10 18 -7 3 3 -2 9 -12 12 -14 6 -15 5 -6 -5z"/>
</g>
</svg>
