<?xml version="1.0" standalone="no"?>
<!DOCTYPE svg PUBLIC "-//W3C//DTD SVG 20010904//EN"
 "http://www.w3.org/TR/2001/REC-SVG-20010904/DTD/svg10.dtd">
<svg version="1.0" xmlns="http://www.w3.org/2000/svg"
 width="300.000000pt" height="300.000000pt" viewBox="0 0 300.000000 300.000000"
 preserveAspectRatio="xMidYMid meet">

<g transform="translate(0.000000,300.000000) scale(0.100000,-0.100000)"
fill="#000000" stroke="none">
<path d="M970 1927 c22 -47 40 -89 40 -95 0 -6 29 -33 65 -61 36 -28 65 -54
65 -57 0 -4 -11 -3 -25 0 -34 9 -32 -3 10 -58 32 -41 40 -46 75 -46 47 0 61
-17 32 -39 l-21 -16 27 -40 c16 -22 37 -41 47 -43 11 -1 54 8 95 21 l75 23
-43 29 c-23 15 -40 30 -38 33 3 2 46 -12 96 -32 l91 -36 85 44 c46 24 81 47
76 50 -5 3 -40 8 -78 12 -130 13 -102 24 58 23 l156 -1 69 53 c37 29 70 55 73
59 3 3 31 27 63 53 33 26 55 47 50 47 -5 0 -79 -13 -164 -29 -85 -16 -244 -45
-354 -65 -215 -40 -290 -64 -281 -94 13 -43 17 -92 9 -92 -5 0 -22 14 -38 30
-18 19 -39 30 -56 30 -47 0 -49 37 -3 58 13 7 24 17 24 24 0 16 -283 286 -310
296 -5 2 8 -35 30 -81z"/>
</g>
</svg>
