<?xml version="1.0" standalone="no"?>
<!DOCTYPE svg PUBLIC "-//W3C//DTD SVG 20010904//EN"
 "http://www.w3.org/TR/2001/REC-SVG-20010904/DTD/svg10.dtd">
<svg version="1.0" xmlns="http://www.w3.org/2000/svg"
 width="400.000000pt" height="500.000000pt" viewBox="0 0 400.000000 500.000000"
 preserveAspectRatio="xMidYMid meet">

<g transform="translate(0.000000,500.000000) scale(0.100000,-0.100000)"
fill="#000000" stroke="none">
<path d="M2000 4601 c0 -6 -7 -8 -15 -5 -8 4 -15 1 -15 -6 0 -8 -9 -10 -27 -6
-16 3 -22 3 -15 0 20 -9 3 -24 -29 -24 -16 0 -28 -3 -27 -7 3 -10 -30 -61 -55
-86 -14 -14 -17 -27 -13 -50 17 -92 18 -107 6 -122 -13 -16 -6 -80 11 -105 8
-12 9 -11 5 5 -17 66 -18 97 -5 93 8 -3 15 -16 16 -29 1 -13 4 -35 6 -49 3
-14 1 -30 -4 -35 -4 -6 1 -35 12 -65 10 -30 19 -75 19 -100 0 -25 5 -52 11
-60 7 -11 9 2 7 48 -3 34 -2 62 2 62 19 0 48 -34 59 -70 7 -23 14 -40 17 -38
2 2 0 18 -5 35 l-9 31 38 -5 c20 -3 47 0 60 7 22 12 23 11 17 -26 -3 -22 -8
-48 -11 -59 -4 -11 3 -2 14 20 11 22 20 52 20 66 0 23 16 39 37 39 3 0 2 -27
-1 -60 -4 -39 -3 -60 4 -60 5 0 10 5 10 11 0 6 12 2 28 -9 25 -18 138 -72 149
-72 19 0 -28 31 -95 64 l-80 39 5 56 c3 31 11 75 19 99 9 27 11 49 6 59 -9 16
6 85 22 100 9 8 1 -60 -10 -94 -6 -15 -5 -16 7 -5 15 14 19 183 5 253 -8 47
-71 115 -113 124 -18 3 -44 15 -58 26 -14 11 -25 16 -25 10z m128 -176 c7 -14
12 -36 12 -49 0 -12 7 -46 15 -74 14 -47 14 -55 1 -74 -9 -13 -13 -32 -9 -49
10 -51 -4 -77 -65 -116 -31 -20 -67 -36 -80 -35 -12 1 -48 19 -80 40 -48 32
-57 43 -60 71 -2 19 2 37 9 41 9 6 8 14 -5 31 -23 33 -23 175 0 208 15 21 21
23 78 17 33 -4 75 -2 91 3 55 17 81 13 93 -14z"/>
<path d="M1896 4322 c-3 -5 8 -12 25 -16 43 -8 57 -7 39 3 -28 16 -58 22 -64
13z"/>
<path d="M2057 4311 c-17 -6 -17 -8 2 -25 15 -14 24 -15 38 -7 16 9 14 11 -12
12 -29 1 -29 1 10 14 38 13 38 13 10 14 -16 0 -38 -4 -48 -8z"/>
<path d="M1910 4280 c19 -13 30 -13 30 0 0 6 -10 10 -22 10 -19 0 -20 -2 -8
-10z"/>
<path d="M1988 4163 c6 -2 18 -2 25 0 6 3 1 5 -13 5 -14 0 -19 -2 -12 -5z"/>
<path d="M1983 4113 c15 -2 39 -2 55 0 15 2 2 4 -28 4 -30 0 -43 -2 -27 -4z"/>
<path d="M1835 3951 c-3 -5 -22 -15 -43 -22 -41 -13 -85 -39 -78 -46 7 -7 136
55 136 66 0 13 -7 14 -15 2z"/>
<path d="M1575 3841 c-78 -48 -120 -132 -119 -238 1 -40 6 -78 11 -85 6 -7 14
-28 18 -46 4 -18 9 -31 12 -28 4 3 -2 35 -12 72 -36 134 3 251 110 329 29 21
15 18 -20 -4z"/>
<path d="M1711 3856 c2 -2 45 -6 94 -9 54 -4 78 -2 60 2 -30 9 -162 14 -154 7z"/>
<path d="M2145 3850 c-18 -5 9 -6 65 -3 52 3 97 7 99 9 8 7 -134 2 -164 -6z"/>
<path d="M2406 3849 c93 -27 167 -204 130 -308 -9 -24 -16 -58 -15 -75 1 -28
2 -27 11 12 6 26 13 40 20 36 7 -5 9 -74 6 -222 -5 -193 -3 -221 13 -269 26
-71 24 -158 -6 -332 -28 -163 -31 -248 -10 -306 8 -22 14 -62 15 -89 0 -44 -4
-53 -36 -83 -38 -34 -78 -45 -68 -18 11 27 -4 16 -25 -20 -24 -41 -39 -44 -69
-12 -26 27 -28 59 -7 77 13 11 13 15 3 21 -20 13 -27 10 -21 -10 3 -10 0 -22
-6 -25 -7 -5 -11 8 -11 37 0 37 7 53 42 97 l42 52 0 127 c0 69 -4 178 -8 241
-6 79 -5 137 3 181 10 59 9 77 -14 177 -22 97 -24 118 -14 164 7 31 9 87 5
138 l-6 85 30 -52 c16 -28 34 -54 40 -58 15 -9 12 0 -10 38 -32 55 -51 128
-38 146 7 9 1 6 -12 -6 -13 -12 -37 -48 -54 -80 -41 -76 -73 -93 -183 -93 -76
0 -83 2 -102 26 -24 30 -26 27 -9 -10 14 -31 50 -40 150 -35 85 5 131 30 154
85 8 19 16 34 17 34 2 0 2 -48 1 -107 -2 -79 -10 -134 -28 -203 -32 -119 -33
-167 -1 -259 32 -95 46 -198 29 -212 -19 -15 -118 -29 -125 -17 -4 7 -8 7 -10
0 -2 -5 -50 -13 -106 -17 l-103 -7 7 158 c5 118 3 155 -5 150 -8 -5 -12 -54
-12 -158 l0 -151 -117 7 c-166 10 -212 21 -225 54 -14 37 -4 143 22 226 25 78
23 104 -16 255 -18 68 -24 120 -24 194 l0 101 23 -44 c35 -68 64 -84 163 -89
109 -4 130 2 149 42 l16 32 -21 -27 c-21 -27 -25 -28 -114 -28 -115 0 -146 17
-193 105 -17 33 -42 67 -55 75 -21 14 -22 13 -10 -2 17 -22 8 -68 -24 -127
-13 -24 -24 -46 -24 -48 0 -13 33 24 49 55 l18 35 6 -149 c5 -128 2 -161 -15
-234 -15 -66 -18 -99 -12 -150 4 -36 7 -96 6 -135 0 -38 -2 -149 -4 -246 l-3
-176 43 -46 c42 -47 47 -65 33 -117 -6 -21 -8 -22 -14 -7 -3 9 -4 24 0 33 5
14 3 15 -16 5 -12 -7 -19 -16 -16 -21 3 -5 1 -11 -5 -15 -14 -9 -12 -38 3 -32
6 2 11 11 9 21 -2 9 2 16 8 16 15 0 12 -42 -5 -67 -10 -14 -12 -24 -5 -28 5
-3 10 -19 10 -35 0 -60 40 -223 78 -317 39 -98 40 -100 35 -208 -2 -61 -8
-134 -13 -164 -14 -80 -12 -248 4 -311 8 -30 28 -101 45 -158 17 -57 34 -138
37 -181 l7 -78 -46 -32 c-25 -17 -54 -42 -65 -56 -12 -15 -30 -25 -45 -25 -21
0 -24 -4 -20 -21 5 -18 7 -19 15 -5 5 9 14 16 19 16 6 0 42 28 80 62 66 60 69
64 69 108 0 69 -17 158 -50 266 -46 149 -55 227 -41 358 6 61 12 157 14 213 2
96 7 117 22 93 11 -17 30 -11 73 22 52 40 47 49 -7 13 -23 -16 -47 -25 -56
-21 -34 12 -103 210 -130 370 -9 54 -14 100 -12 102 2 3 36 -1 74 -8 67 -11
169 -4 241 18 l22 6 0 -153 c0 -85 -4 -160 -9 -168 -9 -14 -28 56 -51 189 l-9
55 4 -70 c3 -38 14 -115 26 -170 25 -124 28 -254 5 -314 -21 -56 -20 -112 1
-234 15 -86 15 -114 4 -245 -11 -134 -9 -357 4 -370 3 -3 5 -16 5 -29 0 -13 5
-22 13 -21 17 4 22 -69 5 -90 -11 -15 -10 -15 8 0 19 17 21 17 38 0 16 -16 16
-16 3 11 -16 31 -8 84 11 80 6 -2 11 5 11 15 1 9 6 69 12 132 8 82 8 146 0
226 -15 148 -14 217 4 311 20 102 19 143 -6 233 -23 85 -20 148 12 310 10 52
21 124 24 160 l5 65 -15 -70 c-8 -38 -19 -96 -26 -128 -17 -81 -28 -54 -30 68
0 55 -4 126 -8 158 -6 50 -5 57 8 52 48 -19 126 -27 208 -23 90 5 93 4 109
-19 13 -21 14 -34 4 -91 -17 -103 -49 -210 -85 -289 -37 -80 -53 -89 -98 -53
-14 11 -31 20 -38 20 -17 0 62 -59 80 -60 20 0 9 -158 -17 -233 -12 -38 -15
-53 -6 -46 25 21 48 113 50 202 1 49 4 90 6 93 8 7 33 -360 30 -443 -1 -57
-12 -117 -36 -200 -35 -120 -54 -213 -58 -291 -3 -41 1 -47 60 -108 35 -35 67
-64 72 -64 6 0 10 -7 10 -15 0 -8 5 -15 11 -15 6 0 9 7 6 15 -10 24 13 28 23
3 l10 -23 -3 25 c-2 21 -7 25 -33 25 -25 0 -38 9 -65 45 -19 25 -45 49 -57 55
-18 8 -22 18 -22 51 0 63 24 176 61 289 31 92 33 110 33 230 0 72 -5 199 -13
283 l-13 153 41 101 c23 55 50 146 62 202 23 114 50 156 102 156 20 0 39 11
63 36 30 32 34 43 34 89 0 29 -7 72 -16 96 -19 54 -13 166 18 309 12 55 21
137 22 195 1 85 -3 107 -22 150 -22 47 -23 54 -11 129 12 77 10 136 -10 411
-4 61 -14 123 -20 140 -28 69 -101 136 -146 134 -13 -1 -9 -4 11 -10z m-727
-703 c6 -25 11 -60 11 -78 0 -41 -44 -186 -52 -172 -4 5 -12 37 -19 71 -11 54
-11 70 3 115 9 29 19 68 23 86 8 41 20 34 34 -22z m706 -40 c15 -70 16 -88 5
-148 l-13 -69 -29 78 c-22 59 -28 88 -23 118 9 59 27 117 35 108 4 -4 15 -44
25 -87z m10 -630 c-5 -73 -8 -81 -46 -126 -38 -45 -40 -52 -34 -89 6 -38 5
-41 -20 -47 -15 -4 -73 -5 -129 -2 -75 4 -91 3 -61 -4 22 -5 82 -8 133 -6 50
2 92 0 92 -4 0 -12 -191 -10 -248 3 -47 10 -50 12 -56 47 -12 73 -7 94 24 121
20 17 40 50 56 96 31 85 17 75 -30 -22 -19 -40 -44 -77 -55 -83 -17 -8 -21
-22 -23 -83 l-3 -72 -60 -13 c-58 -12 -233 -11 -254 2 -6 4 -4 19 5 41 20 49
17 91 -9 130 -19 27 -23 49 -25 117 -2 68 12 226 21 234 1 1 31 -4 66 -11 149
-31 472 -27 592 8 l44 13 13 -85 c7 -49 10 -120 7 -165z m-349 -606 c5 -14 9
-81 9 -150 0 -90 5 -142 18 -185 16 -55 16 -67 3 -150 -8 -49 -17 -109 -20
-132 -3 -22 1 -108 9 -190 17 -167 9 -316 -20 -377 -10 -20 -19 -36 -21 -36
-14 0 -35 72 -45 150 -8 69 -8 123 1 213 16 162 14 253 -5 370 -15 96 -15 100
6 175 18 66 21 92 15 180 -4 62 -3 109 3 121 6 10 14 56 18 102 l7 84 7 -75
c3 -42 10 -87 15 -100z"/>
<path d="M1968 2643 c34 -2 90 -2 125 0 34 2 6 3 -63 3 -69 0 -97 -1 -62 -3z"/>
<path d="M1911 2515 c-1 -34 38 -123 62 -144 22 -18 22 -14 -9 50 -15 30 -32
70 -40 89 l-13 35 0 -30z"/>
<path d="M1753 2197 c39 -6 80 -6 120 0 59 10 56 10 -58 10 -112 0 -116 0 -62
-10z"/>
<path d="M1998 3823 c6 -2 18 -2 25 0 6 3 1 5 -13 5 -14 0 -19 -2 -12 -5z"/>
<path d="M2003 3635 c0 -33 2 -45 4 -27 2 18 2 45 0 60 -2 15 -4 0 -4 -33z"/>
<path d="M1452 3480 c0 -14 2 -19 5 -12 2 6 2 18 0 25 -3 6 -5 1 -5 -13z"/>
<path d="M1446 3263 c2 -163 0 -189 -18 -240 -17 -50 -19 -73 -14 -158 3 -55
13 -129 22 -165 9 -36 19 -101 24 -145 l7 -80 2 61 c0 34 -8 106 -20 160 -29
138 -29 271 0 344 21 52 22 61 11 145 -6 50 -12 128 -14 175 -2 47 -2 3 0 -97z"/>
<path d="M2055 3311 c30 -33 133 -96 142 -87 3 2 -13 14 -35 25 -21 11 -61 36
-88 57 -48 36 -48 36 -19 5z"/>
<path d="M2480 3245 c0 -54 2 -96 5 -93 7 7 8 178 1 185 -3 4 -6 -38 -6 -92z"/>
<path d="M1521 3259 c0 -41 5 -83 10 -94 5 -13 7 12 3 70 -8 111 -14 123 -13
24z"/>
<path d="M1903 3282 c-79 -51 -98 -75 -30 -37 39 22 118 84 107 84 -3 0 -37
-21 -77 -47z"/>
<path d="M1831 3185 c0 -10 -13 -53 -28 -95 -25 -73 -26 -79 -18 -215 6 -101
10 -132 16 -111 5 17 4 63 -2 105 -13 90 -7 154 21 235 12 32 19 68 17 80 -4
19 -4 19 -6 1z"/>
<path d="M2181 3182 c-1 -12 8 -47 18 -78 30 -83 34 -133 21 -231 -8 -58 -8
-97 -2 -113 7 -19 11 11 17 120 6 124 4 151 -11 190 -9 25 -23 65 -30 90 -7
27 -13 36 -13 22z"/>
<path d="M2475 3040 c-3 -5 -2 -10 4 -10 5 0 13 5 16 10 3 6 2 10 -4 10 -5 0
-13 -4 -16 -10z"/>
<path d="M1441 2374 c0 -11 3 -14 6 -6 3 7 2 16 -1 19 -3 4 -6 -2 -5 -13z"/>
<path d="M1441 2304 c0 -11 3 -14 6 -6 3 7 2 16 -1 19 -3 4 -6 -2 -5 -13z"/>
<path d="M1475 2230 c3 -5 11 -10 16 -10 6 0 7 5 4 10 -3 6 -11 10 -16 10 -6
0 -7 -4 -4 -10z"/>
<path d="M1540 2235 c0 -5 10 -21 21 -35 13 -17 17 -18 10 -5 -17 33 -31 51
-31 40z"/>
<path d="M2367 2221 c-6 -24 3 -33 21 -22 9 5 9 11 -1 26 -13 17 -14 17 -20
-4z"/>
<path d="M1596 2158 c3 -5 10 -6 15 -3 13 9 11 12 -6 12 -8 0 -12 -4 -9 -9z"/>
<path d="M1910 1715 c0 -5 5 -17 10 -25 5 -8 10 -10 10 -5 0 6 -5 17 -10 25
-5 8 -10 11 -10 5z"/>
<path d="M2127 1713 c-4 -3 -7 -13 -7 -22 1 -13 3 -13 11 2 11 19 8 33 -4 20z"/>
<path d="M1793 1581 c4 -59 13 -106 28 -140 28 -66 43 -66 18 -1 -11 28 -22
91 -26 140 -3 50 -10 90 -16 90 -6 0 -8 -33 -4 -89z"/>
<path d="M1927 1591 c-4 -29 -17 -77 -27 -105 -14 -37 -15 -46 -4 -31 22 29
46 119 42 157 -3 28 -4 24 -11 -21z"/>
<path d="M2111 1604 c-1 -41 24 -130 40 -139 4 -3 2 13 -7 37 -8 24 -19 66
-23 93 l-9 50 -1 -41z"/>
<path d="M2124 582 c3 -6 -2 -13 -11 -15 -10 -2 -3 -4 14 -3 39 1 39 2 12 17
-13 6 -19 7 -15 1z"/>
<path d="M1707 573 c-10 -9 -9 -23 1 -23 5 0 9 7 9 15 0 17 -1 18 -10 8z"/>
<path d="M1895 570 c-3 -5 -1 -10 4 -10 6 0 11 5 11 10 0 6 -2 10 -4 10 -3 0
-8 -4 -11 -10z"/>
<path d="M2306 565 c-3 -9 0 -15 9 -15 9 0 12 6 9 15 -4 8 -7 15 -9 15 -2 0
-5 -7 -9 -15z"/>
<path d="M1770 560 c0 -5 5 -10 11 -10 5 0 7 5 4 10 -3 6 -8 10 -11 10 -2 0
-4 -4 -4 -10z"/>
<path d="M2225 560 c-18 -8 -17 -9 8 -9 16 -1 26 3 22 9 -3 6 -7 10 -8 9 -1 0
-11 -4 -22 -9z"/>
<path d="M1818 553 c7 -3 16 -2 19 1 4 3 -2 6 -13 5 -11 0 -14 -3 -6 -6z"/>
</g>
</svg>
